<svg width="70" height="56" xmlns="http://www.w3.org/2000/svg" xmlns:xlink="http://www.w3.org/1999/xlink" xml:space="preserve" overflow="hidden"><defs><clipPath id="clip0"><rect x="78" y="325" width="70" height="56"/></clipPath><clipPath id="clip1"><rect x="79" y="326" width="68" height="55"/></clipPath><clipPath id="clip2"><rect x="79" y="326" width="68" height="55"/></clipPath><clipPath id="clip3"><rect x="79" y="326" width="68" height="68"/></clipPath></defs><g clip-path="url(#clip0)" transform="translate(-78 -325)"><g clip-path="url(#clip1)"><g clip-path="url(#clip2)"><g clip-path="url(#clip3)"><path d="M54.3989 7.9333 24.9332 7.9333C24.1234 7.9333 23.3751 8.36512 22.9702 9.06635 22.5653 9.76761 22.5653 10.632 22.9702 11.3332 23.3751 12.0345 24.1234 12.4663 24.9332 12.4663L54.3989 12.4663C55.2087 12.4663 55.9569 12.0345 56.3618 11.3332 56.7667 10.632 56.7667 9.76761 56.3618 9.06635 55.9569 8.36509 55.2087 7.9333 54.3989 7.9333Z" fill="#F3E8C0" fill-rule="nonzero" fill-opacity="1" transform="matrix(1.00002 0 0 1 79 326)"/><path d="M18.6996 10.1998C18.6996 11.7646 17.4311 13.0332 15.8662 13.0332 14.3018 13.0332 13.0332 11.7646 13.0332 10.1998 13.0332 8.63495 14.3018 7.36639 15.8662 7.36639 17.4311 7.36639 18.6996 8.63495 18.6996 10.1998" fill="#F3E8C0" fill-rule="nonzero" fill-opacity="1" transform="matrix(1.00002 0 0 1 79 326)"/><path d="M54.3989 19.266 24.9332 19.266C24.1234 19.266 23.3751 19.6981 22.9702 20.3994 22.5653 21.1006 22.5653 21.9646 22.9702 22.6659 23.3751 23.3671 24.1234 23.7993 24.9332 23.7993L54.3989 23.7993C55.2087 23.7993 55.9569 23.3671 56.3618 22.6659 56.7667 21.9646 56.7667 21.1006 56.3618 20.3994 55.9569 19.6981 55.2087 19.266 54.3989 19.266Z" fill="#F3E8C0" fill-rule="nonzero" fill-opacity="1" transform="matrix(1.00002 0 0 1 79 326)"/><path d="M18.6996 21.5332C18.6996 23.0977 17.4311 24.3662 15.8662 24.3662 14.3018 24.3662 13.0332 23.0977 13.0332 21.5332 13.0332 19.9684 14.3018 18.6998 15.8662 18.6998 17.4311 18.6998 18.6996 19.9684 18.6996 21.5332" fill="#F3E8C0" fill-rule="nonzero" fill-opacity="1" transform="matrix(1.00002 0 0 1 79 326)"/><path d="M54.3989 30.5994 24.9332 30.5994C24.1234 30.5994 23.3751 31.0316 22.9702 31.7328 22.5653 32.4341 22.5653 33.298 22.9702 33.9993 23.3751 34.7006 24.1234 35.1327 24.9332 35.1327L54.3989 35.1327C55.2087 35.1327 55.9569 34.7006 56.3618 33.9993 56.7667 33.298 56.7667 32.4341 56.3618 31.7328 55.9569 31.0316 55.2087 30.5994 54.3989 30.5994Z" fill="#F3E8C0" fill-rule="nonzero" fill-opacity="1" transform="matrix(1.00002 0 0 1 79 326)"/><path d="M18.6996 32.8657C18.6996 34.4305 17.4311 35.6991 15.8662 35.6991 14.3018 35.6991 13.0332 34.4305 13.0332 32.8657 13.0332 31.3012 14.3018 30.0327 15.8662 30.0327 17.4311 30.0327 18.6996 31.3012 18.6996 32.8657" fill="#F3E8C0" fill-rule="nonzero" fill-opacity="1" transform="matrix(1.00002 0 0 1 79 326)"/><path d="M54.3989 41.9328 24.9332 41.9328C24.1234 41.9328 23.3751 42.3646 22.9702 43.0659 22.5653 43.7671 22.5653 44.6315 22.9702 45.3327 23.3751 46.034 24.1234 46.4658 24.9332 46.4658L54.3989 46.4658C55.2087 46.4658 55.9569 46.034 56.3618 45.3327 56.7667 44.6315 56.7667 43.7671 56.3618 43.0659 55.9569 42.3646 55.2087 41.9328 54.3989 41.9328Z" fill="#F3E8C0" fill-rule="nonzero" fill-opacity="1" transform="matrix(1.00002 0 0 1 79 326)"/><path d="M18.6996 44.1991C18.6996 45.7639 17.4311 47.0325 15.8662 47.0325 14.3018 47.0325 13.0332 45.7639 13.0332 44.1991 13.0332 42.6343 14.3018 41.3657 15.8662 41.3657 17.4311 41.3657 18.6996 42.6343 18.6996 44.1991" fill="#F3E8C0" fill-rule="nonzero" fill-opacity="1" transform="matrix(1.00002 0 0 1 79 326)"/></g></g></g></g></svg>