<svg width="110" height="59" xmlns="http://www.w3.org/2000/svg" xmlns:xlink="http://www.w3.org/1999/xlink" xml:space="preserve" overflow="hidden"><defs><clipPath id="clip0"><rect x="58" y="398" width="110" height="59"/></clipPath><clipPath id="clip1"><rect x="59" y="399" width="108" height="58"/></clipPath><clipPath id="clip2"><rect x="59" y="399" width="108" height="58"/></clipPath><clipPath id="clip3"><rect x="59" y="383" width="108" height="109"/></clipPath></defs><g clip-path="url(#clip0)" transform="translate(-58 -398)"><g clip-path="url(#clip1)"><g clip-path="url(#clip2)"><g clip-path="url(#clip3)"><path d="M81.4798 32.2704C81.0688 31.9751 80.4987 32.074 80.2076 32.4832 79.9152 32.8942 80.0112 33.4626 80.4203 33.7554 82.5111 35.247 83.7609 37.6685 83.7609 40.2342 83.7609 41.3878 83.5192 42.5003 83.0431 43.5411 82.8334 43.9998 83.0353 44.5409 83.4939 44.7507 83.6175 44.808 83.7464 44.8333 83.8729 44.8333 84.2184 44.8333 84.5498 44.635 84.7035 44.3005 85.2899 43.0204 85.5858 41.653 85.5858 40.2343 85.5846 37.081 84.0508 34.1039 81.4798 32.2706Z" fill="#A0C1B8" fill-rule="nonzero" fill-opacity="1" transform="matrix(1 0 0 1.00403 59 383.124)"/><path d="M78.0408 27.2191C76.3924 27.2191 74.7537 27.5596 73.2478 28.2105 71.2126 24.122 67.0697 21.5286 62.4411 21.5286 57.8126 21.5286 53.6697 24.1207 51.6345 28.2105 50.1284 27.5602 48.4897 27.2191 46.8414 27.2191 40.1806 27.2191 34.7626 32.6384 34.7626 39.2992 34.7626 45.96 40.1819 51.3781 46.8414 51.3781 47.32 51.3781 47.7943 51.3407 48.265 51.2852 48.3011 51.281 48.3366 51.2829 48.3729 51.2786L49.1425 61.4886C49.2847 63.3871 50.8877 64.8744 52.7923 64.8744L72.0919 64.8733C73.9951 64.8733 75.5983 63.3871 75.7416 61.4875L76.5101 51.2775C77.023 51.3437 77.5346 51.3768 78.0414 51.3768 84.7022 51.3768 90.1203 45.9575 90.1203 39.298 90.1203 32.6396 84.7022 27.2191 78.0414 27.2191ZM78.0408 49.5519C77.6153 49.5519 77.1953 49.5146 76.777 49.4628 76.6083 49.4416 76.4382 49.4097 76.269 49.3802 74.9582 49.15 73.698 48.6853 72.5655 47.9687 72.14 47.6999 71.5764 47.8253 71.3064 48.2507 71.0364 48.6775 71.1631 49.2409 71.5897 49.5098 72.5612 50.1251 73.6116 50.5934 74.7067 50.9067L73.9197 61.3482C73.8479 62.2998 73.044 63.0453 72.0894 63.0453L52.7913 63.0453C51.8366 63.0453 51.0328 62.2998 50.961 61.3482L50.6434 57.1306 65.0498 57.1306C65.5537 57.1306 65.9616 56.7227 65.9616 56.2188 65.9616 55.715 65.5537 55.307 65.0498 55.307L50.5065 55.3063 50.1745 50.8918C52.2532 50.291 54.1648 49.1506 55.6643 47.5462 56.0083 47.1779 55.9884 46.6 55.6203 46.2572 55.2533 45.9142 54.6753 45.9329 54.3311 46.2999 52.8865 47.8459 51.0598 48.8746 49.0528 49.312 49.0408 49.3143 49.0288 49.3133 49.0155 49.3162 48.2899 49.4729 47.5589 49.553 46.8435 49.553 41.1892 49.553 36.5895 44.9528 36.5895 39.299 36.5895 33.6448 41.1897 29.0438 46.8435 29.0438 48.5195 29.0438 50.1841 29.4585 51.6553 30.2426 51.8837 30.365 52.1526 30.3849 52.3973 30.2945 52.6407 30.2065 52.8347 30.0178 52.9317 29.7785 54.5041 25.8762 58.2384 23.3545 62.4437 23.3545 66.6493 23.3545 70.3834 25.8762 71.957 29.7802 72.0541 30.0208 72.2481 30.2081 72.4916 30.2962 72.5592 30.3202 72.6297 30.3173 72.7002 30.3256 72.8821 30.3468 73.0672 30.3323 73.2317 30.2443 74.7034 29.4602 76.3674 29.0455 78.0436 29.0455 83.6978 29.0455 88.2976 33.6457 88.2976 39.3007 88.2963 44.9527 83.6961 49.5516 78.0411 49.5516Z" fill="#A0C1B8" fill-rule="nonzero" fill-opacity="1" transform="matrix(1 0 0 1.00403 59 383.124)"/><path d="M43.7817 57.2801 40.5875 57.2801C40.0836 57.2801 39.6744 57.6882 39.6744 58.1919 39.6744 58.6958 40.0823 59.105 40.5875 59.105L43.7817 59.105C44.2856 59.105 44.6935 58.6971 44.6935 58.1919 44.6935 57.687 44.2856 57.2801 43.7817 57.2801Z" fill="#A0C1B8" fill-rule="nonzero" fill-opacity="1" transform="matrix(1 0 0 1.00403 59 383.124)"/><path d="M35.9887 57.2801 31.3896 57.2801C30.8857 57.2801 30.4778 57.6882 30.4778 58.1919 30.4778 58.6958 30.8857 59.105 31.3896 59.105L35.9887 59.105C36.4926 59.105 36.9017 58.6971 36.9017 58.1919 36.9017 57.687 36.4926 57.2801 35.9887 57.2801Z" fill="#A0C1B8" fill-rule="nonzero" fill-opacity="1" transform="matrix(1 0 0 1.00403 59 383.124)"/><path d="M26.7917 57.2801 23.5975 57.2801C23.0936 57.2801 22.6845 57.6882 22.6845 58.1919 22.6845 58.6958 23.0924 59.105 23.5975 59.105L26.7917 59.105C27.2956 59.105 27.7035 58.6971 27.7035 58.1919 27.7035 57.687 27.2956 57.2801 26.7917 57.2801Z" fill="#A0C1B8" fill-rule="nonzero" fill-opacity="1" transform="matrix(1 0 0 1.00403 59 383.124)"/><path d="M32.4401 45.6501C32.944 45.6501 33.3519 45.2421 33.3519 44.737 33.3519 44.232 32.944 43.8252 32.4401 43.8252L30.6152 43.8252C30.1113 43.8252 29.7022 44.2331 29.7022 44.737 29.7022 45.2409 30.1101 45.6501 30.6152 45.6501Z" fill="#A0C1B8" fill-rule="nonzero" fill-opacity="1" transform="matrix(1 0 0 1.00403 59 383.124)"/><path d="M27.2978 43.8249 25.0872 43.8249C24.5833 43.8249 24.1753 44.2328 24.1753 44.7367 24.1753 45.2406 24.5833 45.6497 25.0872 45.6497L27.2978 45.6497C27.8017 45.6497 28.2096 45.2418 28.2096 44.7367 28.2096 44.2311 27.8017 43.8249 27.2978 43.8249Z" fill="#A0C1B8" fill-rule="nonzero" fill-opacity="1" transform="matrix(1 0 0 1.00403 59 383.124)"/><path d="M21.7713 43.8249 19.9457 43.8249C19.4419 43.8249 19.0327 44.2328 19.0327 44.7367 19.0327 45.2406 19.4408 45.6497 19.9457 45.6497L21.7706 45.6497C22.2745 45.6497 22.6837 45.2418 22.6837 44.7367 22.6843 44.2311 22.2745 43.8249 21.7713 43.8249Z" fill="#A0C1B8" fill-rule="nonzero" fill-opacity="1" transform="matrix(1 0 0 1.00403 59 383.124)"/><path d="M30.6149 32.1948 32.4398 32.1948C32.9437 32.1948 33.3516 31.7867 33.3516 31.2817 33.3516 30.7768 32.9437 30.3699 32.4398 30.3699L30.6149 30.3699C30.111 30.3699 29.7019 30.7778 29.7019 31.2817 29.7019 31.7856 30.111 32.1948 30.6149 32.1948Z" fill="#A0C1B8" fill-rule="nonzero" fill-opacity="1" transform="matrix(1 0 0 1.00403 59 383.124)"/><path d="M24.3663 32.1948 26.865 32.1948C27.3689 32.1948 27.7781 31.7867 27.7781 31.2817 27.7781 30.7768 27.37 30.3699 26.865 30.3699L24.3663 30.3699C23.8624 30.3699 23.4533 30.7778 23.4533 31.2817 23.4533 31.7856 23.8624 32.1948 24.3663 32.1948Z" fill="#A0C1B8" fill-rule="nonzero" fill-opacity="1" transform="matrix(1 0 0 1.00403 59 383.124)"/><path d="M21.529 31.283C21.529 30.7791 21.1209 30.3711 20.616 30.3711L18.7923 30.3711C18.2884 30.3711 17.8792 30.7791 17.8792 31.283 17.8792 31.7869 18.2873 32.196 18.7923 32.196L20.6172 32.196C21.1211 32.1948 21.529 31.7869 21.529 31.283Z" fill="#A0C1B8" fill-rule="nonzero" fill-opacity="1" transform="matrix(1 0 0 1.00403 59 383.124)"/><path d="M4.45253-0.265186C4.22231-0.145856 3.98304-0.0566537 3.73415 0.00240686 3.48644 0.0632772 3.22669 0.094014 2.95548 0.094014 2.14849 0.094014 1.50905-0.13078 1.03648-0.580986 0.565179-1.0324 0.330141-1.6447 0.330141-2.4179 0.330141-3.19236 0.565179-3.80469 1.03648-4.25485 1.50898-4.70625 2.14841-4.93225 2.95548-4.93225 3.22669-4.93225 3.48644-4.9015 3.73415-4.84064 3.98306-4.78097 4.22232-4.69178 4.45253-4.57304L4.45253-3.57019C4.2211-3.72748 3.99268-3.8432 3.76789-3.91733 3.54249-3.99086 3.30563-4.02823 3.05672-4.02823 2.61135-4.02823 2.2612-3.88479 2.00565-3.59913 1.75012-3.31285 1.62235-2.9193 1.62235-2.41787 1.62235-1.91765 1.75011-1.52471 2.00565-1.23905 2.26118-0.954573 2.61135-0.812353 3.05672-0.812353 3.30563-0.812353 3.54248-0.848514 3.76789-0.920834 3.99268-0.994361 4.2211-1.11008 4.45253-1.26798Z" fill="#A0C1B8" fill-rule="nonzero" fill-opacity="1" transform="matrix(1 0 0 1.00403 69.8 489.891)"/><path d="M3.25929-2.64461C3.15622-2.69283 3.05438-2.72779 2.95312-2.75068 2.85308-2.77298 2.75303-2.78444 2.65179-2.78444 2.35286-2.78444 2.12203-2.68861 1.95991-2.49756 1.79899-2.30591 1.71884-2.03228 1.71884-1.6755L1.71884-0.000115714 0.559286-0.000115714 0.559286-3.63539 1.71884-3.63539 1.71884-3.03753C1.86831-3.27501 2.03946-3.44858 2.23231-3.55825 2.42637-3.66734 2.65961-3.72217 2.93141-3.72217 2.96998-3.72217 3.01156-3.72037 3.05677-3.71736 3.10137-3.71375 3.16767-3.70651 3.25444-3.69567Z" fill="#A0C1B8" fill-rule="nonzero" fill-opacity="1" transform="matrix(1 0 0 1.00403 74.6774 489.891)"/><path d="M4.18747-1.82736 4.18747-1.4971 1.47065-1.4971C1.49777-1.22349 1.59601-1.01856 1.76475-0.88236 1.93351-0.745552 2.16975-0.677453 2.47351-0.677453 2.71759-0.677453 2.9677-0.713615 3.22324-0.785935 3.47999-0.859461 3.74396-0.969751 4.01396-1.1162L4.01396-0.22182C3.73915-0.116953 3.46432-0.0386054 3.18949 0.0144226 2.91466 0.0674506 2.63984 0.0939754 2.36501 0.0939754 1.7075 0.0939754 1.19642-0.0729617 0.831801-0.407453 0.466575-0.741343 0.284565-1.21082 0.284565-1.81531 0.284565-2.40653 0.463567-2.87181 0.822158-3.21112 1.18015-3.55163 1.67314-3.72219 2.29992-3.72219 2.87186-3.72219 3.3293-3.54982 3.67161-3.20629 4.01515-2.86215 4.18751-2.40232 4.18751-1.82736ZM2.99175-2.21307C2.99175-2.43305 2.92726-2.61084 2.7989-2.74584 2.66993-2.88204 2.50238-2.95075 2.29506-2.95075 2.06967-2.95075 1.88645-2.88686 1.74542-2.76029 1.60559-2.63313 1.5176-2.45052 1.48265-2.21306Z" fill="#A0C1B8" fill-rule="nonzero" fill-opacity="1" transform="matrix(1 0 0 1.00403 77.9554 489.891)"/><path d="M2.18654-1.6345C1.94547-1.6345 1.76285-1.59352 1.6393-1.51156 1.51696-1.42959 1.45609-1.30906 1.45609-1.14994 1.45609-1.00168 1.5049-0.885973 1.60314-0.802798 1.70257-0.719025 1.84-0.677441 2.01537-0.677441 2.23355-0.677441 2.41797-0.755789 2.56742-0.913683 2.71689-1.07098 2.79161-1.26686 2.79161-1.5019L2.79161-1.63449ZM3.96329-2.07326 3.96329 3.08571e-05 2.79168 3.08571e-05 2.79168-0.537562C2.63559-0.31698 2.45961-0.156662 2.26373-0.0554194 2.06906 0.0440223 1.83281 0.0940449 1.55497 0.0940449 1.1789 0.0940449 0.872733-0.0150398 0.63649-0.233812 0.401451-0.453793 0.284534-0.738851 0.284534-1.08962 0.284534-1.51691 0.430382-1.82972 0.723291-2.02738 1.01739-2.22628 1.47844-2.3263 2.10705-2.3263L2.79169-2.3263 2.79169-2.41792C2.79169-2.60113 2.71816-2.73493 2.57231-2.82051 2.42767-2.9073 2.20167-2.95068 1.89491-2.95068 1.6454-2.95068 1.41397-2.92538 1.20062-2.87596 0.986673-2.82593 0.787181-2.75121 0.602763-2.65177L0.602763-3.53651C0.851673-3.59737 1.10179-3.64318 1.3525-3.67391 1.60442-3.70585 1.85633-3.72213 2.10705-3.72213 2.76276-3.72213 3.23587-3.59254 3.52696-3.33401 3.81745-3.07485 3.96329-2.65479 3.96329-2.0732Z" fill="#A0C1B8" fill-rule="nonzero" fill-opacity="1" transform="matrix(1 0 0 1.00403 82.4628 489.891)"/><path d="M1.82736-4.66714 1.82736-3.63536 3.02548-3.63536 3.02548-2.80366 1.82736-2.80366 1.82736-1.26321C1.82736-1.09446 1.8599-0.979961 1.9262-0.920885 1.9937-0.86122 2.12689-0.83169 2.32638-0.83169L2.92424-0.83169 2.92424 3.08571e-06 1.92862 3.08571e-06C1.46877 3.08571e-06 1.14334-0.0952205 0.952285-0.286876 0.760632-0.477928 0.665407-0.803378 0.665407-1.26321L0.665407-2.80366 0.0868351-2.80366 0.0868351-3.63536 0.665407-3.63536 0.665407-4.66714Z" fill="#A0C1B8" fill-rule="nonzero" fill-opacity="1" transform="matrix(1 0 0 1.00403 86.9475 489.891)"/><path d="M4.18747-1.82736 4.18747-1.4971 1.47065-1.4971C1.49777-1.22349 1.59601-1.01856 1.76475-0.88236 1.93351-0.745552 2.16975-0.677453 2.47351-0.677453 2.71759-0.677453 2.9677-0.713615 3.22324-0.785935 3.47999-0.859461 3.74396-0.969751 4.01396-1.1162L4.01396-0.22182C3.73915-0.116953 3.46432-0.0386054 3.18949 0.0144226 2.91466 0.0674506 2.63984 0.0939754 2.36501 0.0939754 1.7075 0.0939754 1.19642-0.0729617 0.831801-0.407453 0.466575-0.741343 0.284565-1.21082 0.284565-1.81531 0.284565-2.40653 0.463567-2.87181 0.822158-3.21112 1.18015-3.55163 1.67314-3.72219 2.29992-3.72219 2.87186-3.72219 3.3293-3.54982 3.67161-3.20629 4.01515-2.86215 4.18751-2.40232 4.18751-1.82736ZM2.99175-2.21307C2.99175-2.43305 2.92726-2.61084 2.7989-2.74584 2.66993-2.88204 2.50238-2.95075 2.29506-2.95075 2.06967-2.95075 1.88645-2.88686 1.74542-2.76029 1.60559-2.63313 1.5176-2.45052 1.48265-2.21306Z" fill="#A0C1B8" fill-rule="nonzero" fill-opacity="1" transform="matrix(1 0 0 1.00403 90.1247 489.891)"/><path d="M3.03033-3.10253 3.03033-5.05039 4.19952-5.05039 4.19952 0 3.03033 0 3.03033-0.525528C2.87123-0.31158 2.69523-0.154887 2.50238-0.0554349 2.30952 0.0440177 2.08653 0.0940294 1.83461 0.0940294 1.38623 0.0940294 1.01798-0.0831523 0.730512-0.438735 0.44243-0.79552 0.29899-1.25417 0.29899-1.81525 0.29899-2.37453 0.442428-2.83136 0.730512-3.18696 1.01799-3.54374 1.38623-3.72214 1.83461-3.72214 2.08533-3.72214 2.30711-3.67151 2.49997-3.57026 2.69403-3.47021 2.87121-3.31474 3.03033-3.10259ZM2.26613-0.749674C2.51324-0.749674 2.70247-0.840076 2.83265-1.02208 2.96404-1.20349 3.03033-1.46806 3.03033-1.8152 3.03033-2.16054 2.96403-2.42391 2.83265-2.60592 2.70248-2.78733 2.51324-2.87832 2.26613-2.87832 2.01843-2.87832 1.82859-2.78733 1.6972-2.60592 1.56702-2.42391 1.50194-2.16054 1.50194-1.8152 1.50194-1.46806 1.56703-1.20349 1.6972-1.02208 1.82859-0.84007 2.01843-0.749674 2.26613-0.749674Z" fill="#A0C1B8" fill-rule="nonzero" fill-opacity="1" transform="matrix(1 0 0 1.00403 94.6321 489.891)"/><path d="M2.49264-0.749736C2.74155-0.749736 2.9314-0.840138 3.06157-1.02214 3.19296-1.20355 3.25924-1.46812 3.25924-1.81526 3.25924-2.1606 3.19294-2.42397 3.06157-2.60598 2.9314-2.78739 2.74155-2.87839 2.49264-2.87839 2.24313-2.87839 2.05208-2.78679 1.91888-2.60357 1.78509-2.42156 1.71879-2.1588 1.71879-1.81526 1.71879-1.46932 1.78509-1.20536 1.91888-1.02214 2.05208-0.840132 2.24313-0.749736 2.49264-0.749736ZM1.7188-3.10259C1.87912-3.31474 2.05691-3.47023 2.25157-3.57026 2.44563-3.67152 2.66982-3.72214 2.92416-3.72214 3.37255-3.72214 3.74019-3.54376 4.02826-3.18696 4.31574-2.83137 4.45978-2.37455 4.45978-1.81526 4.45978-1.25417 4.31574-0.795525 4.02826-0.438739 3.74018-0.0831569 3.37255 0.0940248 2.92416 0.0940248 2.66984 0.0940248 2.44563 0.0440023 2.25157-0.0554395 2.05691-0.156689 1.87911-0.31339 1.7188-0.525533L1.7188-4.62857e-06 0.559255-4.62857e-06 0.559255-5.05039 1.7188-5.05039Z" fill="#A0C1B8" fill-rule="nonzero" fill-opacity="1" transform="matrix(1 0 0 1.00403 101.703 489.891)"/><path d="M0.0819643-3.63528 1.24392-3.63528 2.22025-1.16918 3.04955-3.63528 4.21149-3.63528 2.68312 0.344829C2.53004 0.748023 2.35104 1.03007 2.14551 1.19099 1.94122 1.35312 1.67181 1.43447 1.33793 1.43447L0.665334 1.43447 0.665334 0.672686 1.02936 0.672686C1.22522 0.672686 1.36806 0.641347 1.45846 0.578667 1.54826 0.515988 1.61816 0.403291 1.6682 0.241167L1.69953 0.139917Z" fill="#A0C1B8" fill-rule="nonzero" fill-opacity="1" transform="matrix(1 0 0 1.00403 106.461 489.891)"/><path d="M2.18654-1.6345C1.94547-1.6345 1.76285-1.59352 1.6393-1.51156 1.51696-1.42959 1.45609-1.30906 1.45609-1.14994 1.45609-1.00168 1.5049-0.885973 1.60314-0.802798 1.70257-0.719025 1.84-0.677441 2.01537-0.677441 2.23355-0.677441 2.41797-0.755789 2.56742-0.913683 2.71689-1.07098 2.79161-1.26686 2.79161-1.5019L2.79161-1.63449ZM3.96329-2.07326 3.96329 3.08571e-05 2.79168 3.08571e-05 2.79168-0.537562C2.63559-0.31698 2.45961-0.156662 2.26373-0.0554194 2.06906 0.0440223 1.83281 0.0940449 1.55497 0.0940449 1.1789 0.0940449 0.872733-0.0150398 0.63649-0.233812 0.401451-0.453793 0.284534-0.738851 0.284534-1.08962 0.284534-1.51691 0.430382-1.82972 0.723291-2.02738 1.01739-2.22628 1.47844-2.3263 2.10705-2.3263L2.79169-2.3263 2.79169-2.41792C2.79169-2.60113 2.71816-2.73493 2.57231-2.82051 2.42767-2.9073 2.20167-2.95068 1.89491-2.95068 1.6454-2.95068 1.41397-2.92538 1.20062-2.87596 0.986673-2.82593 0.787181-2.75121 0.602763-2.65177L0.602763-3.53651C0.851673-3.59737 1.10179-3.64318 1.3525-3.67391 1.60442-3.70585 1.85633-3.72213 2.10705-3.72213 2.76276-3.72213 3.23587-3.59254 3.52696-3.33401 3.81745-3.07485 3.96329-2.65479 3.96329-2.0732Z" fill="#A0C1B8" fill-rule="nonzero" fill-opacity="1" transform="matrix(1 0 0 1.00403 113.107 489.891)"/><path d="M0.0819643-3.63528 1.24392-3.63528 2.22025-1.16918 3.04955-3.63528 4.21149-3.63528 2.68312 0.344829C2.53004 0.748023 2.35104 1.03007 2.14551 1.19099 1.94122 1.35312 1.67181 1.43447 1.33793 1.43447L0.665334 1.43447 0.665334 0.672686 1.02936 0.672686C1.22522 0.672686 1.36806 0.641347 1.45846 0.578667 1.54826 0.515988 1.61816 0.403291 1.6682 0.241167L1.69953 0.139917Z" fill="#A0C1B8" fill-rule="nonzero" fill-opacity="1" transform="matrix(1 0 0 1.00403 117.592 489.891)"/><path d="M0.518307-1.41509 0.518307-3.63542 1.6875-3.63542 1.6875-3.2714C1.6875-3.07373 1.68569-2.82602 1.68267-2.5289 1.68087-2.23117 1.68026-2.0329 1.68026-1.93345 1.68026-1.64236 1.6875-1.43202 1.70196-1.30183 1.71763-1.17286 1.74415-1.08005 1.78152-1.02219 1.82974-0.946251 1.8912-0.887792 1.96714-0.846211 2.04429-0.805831 2.13227-0.785944 2.23233-0.785944 2.4746-0.785944 2.66505-0.878154 2.80366-1.06318 2.94167-1.2494 3.01099-1.50795 3.01099-1.83943L3.01099-3.63547 4.17295-3.63547 4.17295-0.000182057 3.01099-0.000182057 3.01099-0.52571C2.83562-0.313567 2.65-0.156875 2.45411-0.0556169 2.25945 0.0438249 2.0443 0.0938474 1.80804 0.0938474 1.38857 0.0938474 1.06855-0.034523 0.848567-0.291867 0.627983-0.548614 0.518301-0.923482 0.518301-1.41525Z" fill="#A0C1B8" fill-rule="nonzero" fill-opacity="1" transform="matrix(1 0 0 1.00403 121.924 489.891)"/><path d="M1.7189-0.525528 1.7189 1.38129 0.559347 1.38129 0.559347-3.63547 1.7189-3.63547 1.7189-3.1027C1.87922-3.31484 2.057-3.47033 2.25166-3.57037 2.44572-3.67163 2.66991-3.72225 2.92425-3.72225 3.37264-3.72225 3.74029-3.54387 4.02835-3.18706 4.31583-2.83148 4.45988-2.37466 4.45988-1.81537 4.45988-1.25428 4.31583-0.795633 4.02835-0.438847 3.74027-0.0832649 3.37264 0.0939168 2.92425 0.0939168 2.66993 0.0939168 2.44572 0.0438943 2.25166-0.0555475 2.057-0.156797 1.8792-0.313498 1.7189-0.525641ZM2.49273-2.87839C2.24322-2.87839 2.05217-2.78679 1.91897-2.60357 1.78518-2.42156 1.71888-2.1588 1.71888-1.81526 1.71888-1.46932 1.78518-1.20536 1.91897-1.02214 2.05217-0.840132 2.24322-0.749736 2.49273-0.749736 2.74164-0.749736 2.93149-0.840138 3.06166-1.02214 3.19305-1.20355 3.25933-1.46812 3.25933-1.81526 3.25933-2.1606 3.19304-2.42397 3.06166-2.60598 2.93149-2.78739 2.74164-2.87839 2.49273-2.87839Z" fill="#A0C1B8" fill-rule="nonzero" fill-opacity="1" transform="matrix(1 0 0 1.00403 128.97 489.891)"/><path d="M0.518307-1.41509 0.518307-3.63542 1.6875-3.63542 1.6875-3.2714C1.6875-3.07373 1.68569-2.82602 1.68267-2.5289 1.68087-2.23117 1.68026-2.0329 1.68026-1.93345 1.68026-1.64236 1.6875-1.43202 1.70196-1.30183 1.71763-1.17286 1.74415-1.08005 1.78152-1.02219 1.82974-0.946251 1.8912-0.887792 1.96714-0.846211 2.04429-0.805831 2.13227-0.785944 2.23233-0.785944 2.4746-0.785944 2.66505-0.878154 2.80366-1.06318 2.94167-1.2494 3.01099-1.50795 3.01099-1.83943L3.01099-3.63547 4.17295-3.63547 4.17295-0.000182057 3.01099-0.000182057 3.01099-0.52571C2.83562-0.313567 2.65-0.156875 2.45411-0.0556169 2.25945 0.0438249 2.0443 0.0938474 1.80804 0.0938474 1.38857 0.0938474 1.06855-0.034523 0.848567-0.291867 0.627983-0.548614 0.518301-0.923482 0.518301-1.41525Z" fill="#A0C1B8" fill-rule="nonzero" fill-opacity="1" transform="matrix(1 0 0 1.00403 133.727 489.891)"/><path d="M1.82736-4.66714 1.82736-3.63536 3.02548-3.63536 3.02548-2.80366 1.82736-2.80366 1.82736-1.26321C1.82736-1.09446 1.8599-0.979961 1.9262-0.920885 1.9937-0.86122 2.12689-0.83169 2.32638-0.83169L2.92424-0.83169 2.92424 3.08571e-06 1.92862 3.08571e-06C1.46877 3.08571e-06 1.14334-0.0952205 0.952285-0.286876 0.760632-0.477928 0.665407-0.803378 0.665407-1.26321L0.665407-2.80366 0.0868351-2.80366 0.0868351-3.63536 0.665407-3.63536 0.665407-4.66714Z" fill="#A0C1B8" fill-rule="nonzero" fill-opacity="1" transform="matrix(1 0 0 1.00403 138.458 489.891)"/><path d="M3.25929-2.64461C3.15622-2.69283 3.05438-2.72779 2.95312-2.75068 2.85308-2.77298 2.75303-2.78444 2.65179-2.78444 2.35286-2.78444 2.12203-2.68861 1.95991-2.49756 1.79899-2.30591 1.71884-2.03228 1.71884-1.6755L1.71884-0.000115714 0.559286-0.000115714 0.559286-3.63539 1.71884-3.63539 1.71884-3.03753C1.86831-3.27501 2.03946-3.44858 2.23231-3.55825 2.42637-3.66734 2.65961-3.72217 2.93141-3.72217 2.96998-3.72217 3.01156-3.72037 3.05677-3.71736 3.10137-3.71375 3.16767-3.70651 3.25444-3.69567Z" fill="#A0C1B8" fill-rule="nonzero" fill-opacity="1" transform="matrix(1 0 0 1.00403 141.636 489.891)"/><path d="M0.559286-3.63528 1.71884-3.63528 1.71884 0 0.559286 0ZM0.559286-5.05037 1.71884-5.05037 1.71884-4.10297 0.559286-4.10297Z" fill="#A0C1B8" fill-rule="nonzero" fill-opacity="1" transform="matrix(1 0 0 1.00403 144.913 489.891)"/><path d="M2.95071-5.05039 2.95071-4.2862 2.30705-4.2862C2.14312-4.2862 2.02801-4.25606 1.96231-4.197 1.89782-4.13734 1.86589-4.03428 1.86589-3.88843L1.86589-3.63531 2.8591-3.63531 2.8591-2.80362 1.86589-2.80362 1.86589 6.48e-05 0.703929 6.48e-05 0.703929-2.80362 0.127764-2.80362 0.127764-3.63531 0.703929-3.63531 0.703929-3.88843C0.703929-4.28379 0.813616-4.57608 1.03419-4.76593 1.25598-4.95518 1.59829-5.0504 2.06115-5.0504Z" fill="#A0C1B8" fill-rule="nonzero" fill-opacity="1" transform="matrix(1 0 0 1.00403 69.8 496.564)"/><path d="M4.21154-2.21307 4.21154 0 3.04475 0 3.04475-1.68758C3.04475-2.00579 3.03752-2.22397 3.02306-2.34329 3.00859-2.46201 2.98449-2.5494 2.95073-2.60606 2.90372-2.68139 2.84105-2.73985 2.76269-2.78203 2.68554-2.82543 2.59755-2.84713 2.49992-2.84713 2.25705-2.84713 2.06599-2.75311 1.92616-2.56508 1.78755-2.37825 1.71884-2.1197 1.71884-1.78883L1.71884-4.32e-05 0.55929-4.32e-05 0.55929-5.05043 1.71884-5.05043 1.71884-3.10258C1.89542-3.31472 2.08165-3.47021 2.27812-3.57025 2.47579-3.67149 2.69337-3.72213 2.93143-3.72213 3.3509-3.72213 3.6691-3.59314 3.88607-3.33641 4.10303-3.07906 4.21152-2.7048 4.21152-2.21303Z" fill="#A0C1B8" fill-rule="nonzero" fill-opacity="1" transform="matrix(1 0 0 1.00403 92.9513 496.564)"/><path d="M0.559286-3.63528 1.71884-3.63528 1.71884-0.0649543C1.71884 0.422002 1.60192 0.79326 1.36929 1.0488 1.13605 1.30555 0.79795 1.43452 0.354379 1.43452L-0.221786 1.43452-0.221786 0.672732-0.0192857 0.672732C0.200695 0.672732 0.351957 0.622709 0.433929 0.523268 0.517098 0.423223 0.559286 0.227348 0.559286-0.0649466ZM0.559286-5.05037 1.71884-5.05037 1.71884-4.10297 0.559286-4.10297Z" fill="#A0C1B8" fill-rule="nonzero" fill-opacity="1" transform="matrix(1 0 0 1.00403 139.124 496.564)"/></g></g></g></g></svg>