<svg width="96" height="76" xmlns="http://www.w3.org/2000/svg" xmlns:xlink="http://www.w3.org/1999/xlink" xml:space="preserve" overflow="hidden"><defs><clipPath id="clip0"><rect x="72" y="484" width="96" height="76"/></clipPath><clipPath id="clip1"><rect x="72" y="484" width="95" height="76"/></clipPath><clipPath id="clip2"><rect x="72" y="484" width="95" height="76"/></clipPath><clipPath id="clip3"><rect x="72" y="484" width="95" height="96"/></clipPath></defs><g clip-path="url(#clip0)" transform="translate(-72 -484)"><g clip-path="url(#clip1)"><g clip-path="url(#clip2)"><g clip-path="url(#clip3)"><path d="M33.9069 26.7086 33.9069 26.8019C33.9069 34.3971 38.827 40.9949 46.3269 42.1511 47.1083 42.272 47.9082 42.3319 48.7035 42.3319 49.4992 42.3319 50.2998 42.272 51.0807 42.1511 58.5794 40.9949 63.4996 34.3969 63.4996 26.8019L63.4996 26.7086Z" fill="#709FAF" fill-rule="nonzero" fill-opacity="1" transform="matrix(1 0 0 1.00162 72 484)"/><path d="M46.5486 47.6072 46.5486 65.9992 37.283 65.9987C36.2 65.9987 35.3221 66.8755 35.3221 67.9596 35.3221 69.0417 36.2 69.9205 37.283 69.9205L60.2269 69.9205C61.31 69.9205 62.1884 69.0421 62.1884 67.9596 62.1884 66.8761 61.3099 65.9987 60.2269 65.9987L50.4708 65.9987 50.4708 47.6813 51.0364 47.6071C51.0401 47.6071 51.045 47.6055 51.0492 47.6055 53.5244 47.2318 55.9275 46.4185 58.1901 45.1881 60.4113 43.9822 61.6636 42.4288 63.3673 40.5711 65.0993 38.6828 66.457 36.5622 67.4026 34.2699 68.3944 31.8652 68.896 29.3534 68.896 26.8014 68.896 22.5778 67.9869 18.5673 67.1053 14.6884 66.8672 13.6404 66.6361 12.6151 66.4235 11.5988L65.8346 8.76993 31.5762 8.76993 30.9856 11.5993C30.772 12.6251 30.5334 13.6731 30.3039 14.6894 29.4227 18.5684 28.5132 22.5815 28.5132 26.8009 28.5132 29.3614 28.9722 31.8642 29.8783 34.2396 30.7541 36.5335 32.018 38.6415 33.6364 40.5054 36.9068 44.2726 40.6696 46.7547 45.5659 47.4935M51.6873 44.539C51.2705 44.609 50.2629 44.6933 49.5259 44.7198 49.2073 44.732 48.9306 44.6917 48.7281 44.7024 48.5218 44.6917 48.0674 44.7305 47.7398 44.7198 46.9903 44.6933 46.1357 44.609 45.7194 44.539 37.0273 43.0817 31.4545 35.6227 31.4545 26.8025 31.4545 22.9129 32.3277 19.0637 33.1721 15.3416 33.4054 14.3147 33.6467 13.2539 33.8661 12.2011L33.9679 11.7117 63.4396 11.7117 63.5409 12.2005C63.7587 13.2401 63.9947 14.2797 64.2353 15.3417 65.0799 19.0616 65.9535 22.9083 65.9535 26.8015 65.9519 35.6241 60.3792 43.0818 51.6872 44.5394Z" fill="#709FAF" fill-rule="nonzero" fill-opacity="1" transform="matrix(1 0 0 1.00162 72 484)"/><path d="M2.54681-0.152679C2.41535-0.0848214 2.27803-0.0339286 2.13544 0 1.99389 0.0349885 1.84546 0.0530127 1.69013 0.0530127 1.22892 0.0530127 0.863659-0.0752794 0.593818-0.332932 0.323448-0.59163 0.188792-0.941529 0.188792-1.3826 0.188792-1.82473 0.323447-2.17462 0.593818-2.43227 0.863659-2.69097 1.22892-2.82033 1.69013-2.82033 1.84546-2.82033 1.9939-2.80231 2.13544-2.76732 2.27805-2.73339 2.41535-2.6825 2.54681-2.61464L2.54681-2.04209C2.41375-2.13115 2.28281-2.19689 2.15452-2.2393 2.0257-2.28171 1.88998-2.30291 1.74738-2.30291 1.49291-2.30291 1.29252-2.22073 1.14726-2.05693 1.00148-1.89418 0.928842-1.66939 0.928842-1.38259 0.928842-1.09684 1.00147-0.872074 1.14726-0.708254 1.29252-0.545505 1.49291-0.464389 1.74738-0.464389 1.88998-0.464389 2.0257-0.484534 2.15452-0.525883 2.28281-0.568294 2.41376-0.634561 2.54681-0.725221Z" fill="#709FAF" fill-rule="nonzero" fill-opacity="1" transform="matrix(1 0 0 1.00162 81.5 571.541)"/><path d="M1.8639-1.51199C1.80453-1.5385 1.74568-1.55864 1.68789-1.57137 1.63116-1.58516 1.57392-1.59257 1.51613-1.59257 1.3449-1.59257 1.21342-1.53744 1.12172-1.42717 1.02948-1.31796 0.983888-1.1621 0.983888-0.95853L0.983888-4.75e-05 0.320164-4.75e-05 0.320164-2.07811 0.983888-2.07811 0.983888-1.73671C1.06871-1.87242 1.16626-1.97102 1.27652-2.03358 1.38784-2.09719 1.52091-2.129 1.67518-2.129 1.69745-2.129 1.72183-2.12742 1.74728-2.12476 1.77379-2.12317 1.81195-2.11946 1.86178-2.11416Z" fill="#709FAF" fill-rule="nonzero" fill-opacity="1" transform="matrix(1 0 0 1.00162 84.289 571.541)"/><path d="M2.39414-1.04542 2.39414-0.854579 0.8398-0.854579C0.856764-0.698725 0.912958-0.582092 1.00944-0.504694 1.1054-0.426764 1.24058-0.388064 1.41447-0.388064 1.55442-0.388064 1.69703-0.40821 1.84281-0.449559 1.98965-0.49197 2.14021-0.554526 2.29448-0.638283L2.29448-0.127238C2.13757-0.0678626 1.98064-0.023332 1.82372 0.00635686 1.6668 0.0371043 1.50988 0.0530086 1.35295 0.0530086 0.976559 0.0530086 0.683919-0.0424148 0.475041-0.233267 0.267235-0.424109 0.163319-0.691832 0.163319-1.03695 0.163319-1.37624 0.265635-1.64236 0.470793-1.83639 0.675423-2.03148 0.956922-2.12902 1.31477-2.12902 1.64133-2.12902 1.90269-2.02988 2.09936-1.83214 2.29551-1.63547 2.39412-1.37305 2.39412-1.04542ZM1.71133-1.26596C1.71133-1.3916 1.67423-1.49286 1.60106-1.5692 1.52737-1.64659 1.43142-1.68583 1.31267-1.68583 1.18385-1.68583 1.0794-1.64978 0.99883-1.57768 0.918256-1.50557 0.867887-1.40167 0.848269-1.26596Z" fill="#709FAF" fill-rule="nonzero" fill-opacity="1" transform="matrix(1 0 0 1.00162 86.163 571.541)"/><path d="M1.25112-0.935153C1.11223-0.935153 1.00779-0.911826 0.937284-0.865176 0.867836-0.818524 0.833378-0.749076 0.833378-0.65737 0.833378-0.572549 0.861475-0.50575 0.918199-0.458033 0.974393-0.411381 1.05232-0.388056 1.15147-0.388056 1.27711-0.388056 1.3826-0.432587 1.46742-0.52165 1.5533-0.611773 1.59677-0.724163 1.59677-0.858819L1.59677-0.935158ZM2.26475-1.18538 2.26475 0 1.59677 0 1.59677-0.307474C1.50772-0.181302 1.40699-0.089585 1.29565-0.0318114 1.18379 0.0243824 1.04808 0.05301 0.888508 0.05301 0.673279 0.05301 0.498859-0.0090155 0.364732-0.133597 0.230078-0.259239 0.163278-0.422519 0.163278-0.623444 0.163278-0.866251 0.246509-1.04438 0.413508-1.15782 0.581563-1.27233 0.845039-1.32958 1.20446-1.32958L1.59676-1.32958 1.59676-1.38259C1.59676-1.48704 1.55488-1.56336 1.47165-1.61161 1.38788-1.66091 1.25854-1.68583 1.08359-1.68583 0.940448-1.68583 0.807923-1.67151 0.684926-1.64342 0.562994-1.6148 0.450072-1.57239 0.34564-1.51619L0.34564-2.023C0.486661-2.05693 0.628726-2.0829 0.771864-2.10145 0.916061-2.11948 1.06026-2.12902 1.20445-2.12902 1.57872-2.12902 1.84909-2.05481 2.0145-1.90637 2.18097-1.75899 2.26473-1.51883 2.26473-1.18539Z" fill="#709FAF" fill-rule="nonzero" fill-opacity="1" transform="matrix(1 0 0 1.00162 88.7401 571.541)"/><path d="M1.04542-2.6676 1.04542-2.07808 1.73036-2.07808 1.73036-1.60308 1.04542-1.60308 1.04542-0.720941C1.04542-0.624457 1.0645-0.559781 1.10268-0.525852 1.14085-0.491924 1.21613-0.474959 1.32958-0.474959L1.67098-0.474959 1.67098 4.07143e-05 1.10268 4.07143e-05C0.839729 4.07143e-05 0.653122-0.0540333 0.542854-0.163237 0.433647-0.273505 0.379577-0.459054 0.379577-0.720941L0.379577-1.60308 0.0508901-1.60308 0.0508901-2.07808 0.379577-2.07808 0.379577-2.6676Z" fill="#709FAF" fill-rule="nonzero" fill-opacity="1" transform="matrix(1 0 0 1.00162 91.3043 571.541)"/><path d="M2.39414-1.04542 2.39414-0.854579 0.8398-0.854579C0.856764-0.698725 0.912958-0.582092 1.00944-0.504694 1.1054-0.426764 1.24058-0.388064 1.41447-0.388064 1.55442-0.388064 1.69703-0.40821 1.84281-0.449559 1.98965-0.49197 2.14021-0.554526 2.29448-0.638283L2.29448-0.127238C2.13757-0.0678626 1.98064-0.023332 1.82372 0.00635686 1.6668 0.0371043 1.50988 0.0530086 1.35295 0.0530086 0.976559 0.0530086 0.683919-0.0424148 0.475041-0.233267 0.267235-0.424109 0.163319-0.691832 0.163319-1.03695 0.163319-1.37624 0.265635-1.64236 0.470793-1.83639 0.675423-2.03148 0.956922-2.12902 1.31477-2.12902 1.64133-2.12902 1.90269-2.02988 2.09936-1.83214 2.29551-1.63547 2.39412-1.37305 2.39412-1.04542ZM1.71133-1.26596C1.71133-1.3916 1.67423-1.49286 1.60106-1.5692 1.52737-1.64659 1.43142-1.68583 1.31267-1.68583 1.18385-1.68583 1.0794-1.64978 0.99883-1.57768 0.918256-1.50557 0.867887-1.40167 0.848269-1.26596Z" fill="#709FAF" fill-rule="nonzero" fill-opacity="1" transform="matrix(1 0 0 1.00162 93.1211 571.541)"/><path d="M1.73253-1.77487 1.73253-2.88815 2.4005-2.88815 2.4005-1.35714e-05 1.73253-1.35714e-05 1.73253-0.301136C1.64187-0.178145 1.54169-0.0880243 1.43141-0.031825 1.32112 0.0243743 1.19285 0.0529964 1.04759 0.0529964 0.79154 0.0529964 0.581604-0.0487893 0.417796-0.252361 0.25346-0.455932 0.171814-0.717291 0.171814-1.03695 0.171814-1.35769 0.253455-1.6201 0.417796-1.82367 0.581604-2.02725 0.79154-2.12903 1.04759-2.12903 1.19179-2.12903 1.31902-2.09988 1.42929-2.04209 1.54062-1.98378 1.64187-1.89472 1.73253-1.7749ZM1.29569-0.428328C1.43671-0.428328 1.54485-0.479751 1.62013-0.583124 1.69488-0.68756 1.73252-0.838646 1.73252-1.03693 1.73252-1.23466 1.69488-1.38522 1.62013-1.4886 1.54485-1.59303 1.4367-1.64551 1.29569-1.64551 1.15414-1.64551 1.046-1.59303 0.971253-1.4886 0.895974-1.38522 0.858865-1.23466 0.858865-1.03693 0.858865-0.83866 0.895975-0.687569 0.971253-0.583124 1.046-0.479747 1.15416-0.428328 1.29569-0.428328Z" fill="#709FAF" fill-rule="nonzero" fill-opacity="1" transform="matrix(1 0 0 1.00162 95.698 571.541)"/><path d="M1.425-0.428341C1.56761-0.428341 1.67629-0.479765 1.75156-0.583137 1.82631-0.687573 1.86394-0.83866 1.86394-1.03694 1.86394-1.23467 1.82631-1.38524 1.75156-1.48861 1.67628-1.59304 1.5676-1.64552 1.425-1.64552 1.28186-1.64552 1.17265-1.59304 1.09631-1.48861 1.02103-1.38365 0.983926-1.23309 0.983926-1.03694 0.983926-0.840261 1.02104-0.6897 1.09631-0.585268 1.17265-0.480301 1.28186-0.428355 1.425-0.428355ZM0.983929-1.77489C1.07564-1.89469 1.1769-1.98376 1.28717-2.04208 1.3985-2.09987 1.52679-2.12902 1.67098-2.12902 1.92809-2.12902 2.13856-2.02723 2.3029-1.82366 2.4667-1.62009 2.54888-1.35767 2.54888-1.03694 2.54888-0.717266 2.4667-0.455921 2.3029-0.25235 2.13856-0.0487784 1.92809 0.0530073 1.67098 0.0530073 1.52679 0.0530073 1.3985 0.0243797 1.28717-0.0318141 1.1769-0.0895986 1.07564-0.179186 0.983929-0.301126L0.983929-2.71429e-06 0.320204-2.71429e-06 0.320204-2.88814 0.983929-2.88814Z" fill="#709FAF" fill-rule="nonzero" fill-opacity="1" transform="matrix(1 0 0 1.00162 99.7414 571.541)"/><path d="M0.0466518-2.07806 0.710376-2.07806 1.2702-0.66785 1.7452-2.07806 2.40893-2.07806 1.53527 0.197329C1.44726 0.427405 1.34495 0.588566 1.22779 0.680811 1.1101 0.774114 0.956358 0.820759 0.765517 0.820759L0.379573 0.820759 0.379573 0.383922 0.587378 0.383922C0.700297 0.383922 0.782468 0.365367 0.83336 0.328788 0.885313 0.293269 0.925604 0.229653 0.95423 0.137947L0.973314 0.0806916Z" fill="#709FAF" fill-rule="nonzero" fill-opacity="1" transform="matrix(1 0 0 1.00162 102.461 571.541)"/><path d="M1.99758-2.01237 1.99758-1.47163C1.90851-1.53365 1.81787-1.57978 1.72615-1.60946 1.63549-1.63914 1.54166-1.65399 1.44412-1.65399 1.25857-1.65399 1.11385-1.59939 1.00942-1.49071 0.906039-1.38309 0.85462-1.23202 0.85462-1.03691 0.85462-0.842883 0.906044-0.691793 1.00942-0.583113 1.11385-0.475495 1.25857-0.421952 1.44412-0.421952 1.54697-0.421952 1.64558-0.436796 1.73888-0.466483 1.83218-0.49723 1.91806-0.543353 1.99758-0.604314L1.99758-0.0614569C1.89421-0.0232872 1.7887 0.00480971 1.68162 0.0233646 1.57559 0.0429794 1.46798 0.0530521 1.3593 0.0530521 0.984499 0.0530521 0.691329-0.042902 0.479275-0.235341 0.26828-0.427254 0.163319-0.694435 0.163319-1.0369 0.163319-1.38042 0.268285-1.64814 0.479275-1.84058 0.691329-2.0325 0.984499-2.12898 1.3593-2.12898 1.46798-2.12898 1.5756-2.11891 1.68162-2.09928 1.78764-2.08073 1.89262-2.05158 1.99758-2.01234Z" fill="#709FAF" fill-rule="nonzero" fill-opacity="1" transform="matrix(1 0 0 1.00162 106.261 571.541)"/><path d="M1.30837-1.65409C1.161-1.65409 1.0486-1.60108 0.971199-1.49504 0.893269-1.38901 0.854568-1.23634 0.854568-1.03701 0.854568-0.837669 0.893269-0.684991 0.971199-0.578971 1.0486-0.474004 1.16098-0.422058 1.30837-0.422058 1.45256-0.422058 1.56283-0.474011 1.63917-0.578971 1.71657-0.684997 1.7558-0.837669 1.7558-1.03701 1.7558-1.23634 1.71657-1.38902 1.63917-1.49504 1.56283-1.60106 1.45256-1.65409 1.30837-1.65409ZM1.30837-2.12909C1.66568-2.12909 1.94506-2.03208 2.14598-1.83858 2.34638-1.64613 2.44711-1.37895 2.44711-1.03702 2.44711-0.696146 2.34638-0.428952 2.14598-0.235464 1.94506-0.0430214 1.66568 0.0529286 1.30837 0.0529286 0.948941 0.0529286 0.668501-0.0430255 0.466518-0.235464 0.264005-0.428966 0.163278-0.696146 0.163278-1.03702 0.163278-1.37895 0.264004-1.64615 0.466518-1.83858 0.668501-2.03208 0.948941-2.12909 1.30837-2.12909Z" fill="#709FAF" fill-rule="nonzero" fill-opacity="1" transform="matrix(1 0 0 1.00162 108.514 571.541)"/><path d="M1.8639-1.51199C1.80453-1.5385 1.74568-1.55864 1.68789-1.57137 1.63116-1.58516 1.57392-1.59257 1.51613-1.59257 1.3449-1.59257 1.21342-1.53744 1.12172-1.42717 1.02948-1.31796 0.983888-1.1621 0.983888-0.95853L0.983888-4.75e-05 0.320164-4.75e-05 0.320164-2.07811 0.983888-2.07811 0.983888-1.73671C1.06871-1.87242 1.16626-1.97102 1.27652-2.03358 1.38784-2.09719 1.52091-2.129 1.67518-2.129 1.69745-2.129 1.72183-2.12742 1.74728-2.12476 1.77379-2.12317 1.81195-2.11946 1.86178-2.11416Z" fill="#709FAF" fill-rule="nonzero" fill-opacity="1" transform="matrix(1 0 0 1.00162 111.124 571.541)"/><path d="M0.983929-0.301123 0.983929 0.790956 0.320204 0.790956 0.320204-2.07818 0.983929-2.07818 0.983929-1.77494C1.07564-1.89475 1.1769-1.98382 1.28717-2.04213 1.3985-2.09992 1.52679-2.12907 1.67098-2.12907 1.92809-2.12907 2.13856-2.02729 2.3029-1.82372 2.4667-1.62014 2.54888-1.35773 2.54888-1.037 2.54888-0.717321 2.4667-0.455976 2.3029-0.252404 2.13856-0.0488327 1.92809 0.052953 1.67098 0.052953 1.52679 0.052953 1.3985 0.0243254 1.28717-0.0318684 1.1769-0.0896529 1.07564-0.179241 0.983929-0.30118ZM1.425-1.64554C1.28186-1.64554 1.17265-1.59306 1.09631-1.48862 1.02103-1.38366 0.983926-1.2331 0.983926-1.03695 0.983926-0.840275 1.02104-0.689714 1.09631-0.585281 1.17265-0.480315 1.28186-0.428369 1.425-0.428369 1.56761-0.428369 1.67629-0.479792 1.75156-0.583164 1.82631-0.687601 1.86394-0.838687 1.86394-1.03697 1.86394-1.2347 1.82631-1.38526 1.75156-1.48864 1.67628-1.59307 1.5676-1.64555 1.425-1.64555Z" fill="#709FAF" fill-rule="nonzero" fill-opacity="1" transform="matrix(1 0 0 1.00162 112.998 571.541)"/><path d="M0.296875-0.810052 0.296875-2.07814 0.964847-2.07814 0.964847-1.87033C0.964847-1.75689 0.963787-1.61587 0.962726-1.44623 0.961137-1.27658 0.960606-1.16314 0.960606-1.10694 0.960606-0.938356 0.964847-0.817489 0.973329-0.744325 0.982871-0.670636 0.997716-0.617624 1.01786-0.585281 1.04596-0.54128 1.08201-0.507352 1.12601-0.483496 1.16948-0.4607 1.21984-0.449567 1.27657-0.449567 1.41493-0.449567 1.52361-0.50258 1.60313-0.608611 1.68211-0.714638 1.72188-0.862016 1.72188-1.0518L1.72188-2.07814 2.3856-2.07814 2.3856-8.14286e-05 1.72188-8.14286e-05 1.72188-0.301204C1.62115-0.179273 1.51513-0.08968 1.40379-0.0318929 1.29193 0.024301 1.16841 0.0529286 1.03269 0.0529286 0.793603 0.0529286 0.61123-0.0202296 0.485599-0.167607 0.359427-0.31445 0.296875-0.528634 0.296875-0.810133Z" fill="#709FAF" fill-rule="nonzero" fill-opacity="1" transform="matrix(1 0 0 1.00162 115.719 571.541)"/><path d="M1.94234-2.01237 1.94234-1.50768C1.80079-1.56705 1.66349-1.61158 1.53097-1.64127 1.3979-1.67096 1.2728-1.6858 1.15563-1.6858 1.02946-1.6858 0.935628-1.6699 0.873606-1.63914 0.812641-1.60788 0.782423-1.5591 0.782423-1.49284 0.782423-1.44035 0.805749-1.40007 0.8524-1.37196 0.899052-1.34334 0.982282-1.32213 1.10263-1.30835L1.21926-1.29139C1.5596-1.24739 1.78862-1.17582 1.90631-1.07722 2.02347-0.978081 2.08232-0.823281 2.08232-0.612815 2.08232-0.390692 2.00016-0.223695 1.83634-0.112369 1.67359-0.00210086 1.43025 0.0530399 1.10687 0.0530399 0.967985 0.0530399 0.825376 0.0424372 0.678533 0.0212311 0.532749 2.57857e-05 0.382717-0.0323122 0.22898-0.0763135L0.22898-0.581008C0.360453-0.515801 0.495102-0.46703 0.634006-0.434694 0.773954-0.403416 0.916034-0.388042 1.06023-0.388042 1.19011-0.388042 1.28766-0.405537 1.35286-0.441055 1.41754-0.477634 1.45041-0.531178 1.45041-0.602216 1.45041-0.661591 1.42761-0.705062 1.38255-0.733689 1.33695-0.763377 1.24736-0.785642 1.11323-0.801546L0.996603-0.816391C0.700787-0.85297 0.494039-0.921358 0.375289-1.02208 0.256539-1.12227 0.197164-1.27443 0.197164-1.478 0.197164-1.69853 0.271913-1.86181 0.421934-1.96784 0.573025-2.07494 0.804689-2.129 1.11747-2.129 1.23887-2.129 1.36663-2.11893 1.50129-2.09932 1.637-2.08076 1.78384-2.05161 1.94236-2.01237Z" fill="#709FAF" fill-rule="nonzero" fill-opacity="1" transform="matrix(1 0 0 1.00162 118.424 571.541)"/><path d="M1.73253-1.77487 1.73253-2.88815 2.4005-2.88815 2.4005-1.35714e-05 1.73253-1.35714e-05 1.73253-0.301136C1.64187-0.178145 1.54169-0.0880243 1.43141-0.031825 1.32112 0.0243743 1.19285 0.0529964 1.04759 0.0529964 0.79154 0.0529964 0.581604-0.0487893 0.417796-0.252361 0.25346-0.455932 0.171814-0.717291 0.171814-1.03695 0.171814-1.35769 0.253455-1.6201 0.417796-1.82367 0.581604-2.02725 0.79154-2.12903 1.04759-2.12903 1.19179-2.12903 1.31902-2.09988 1.42929-2.04209 1.54062-1.98378 1.64187-1.89472 1.73253-1.7749ZM1.29569-0.428328C1.43671-0.428328 1.54485-0.479751 1.62013-0.583124 1.69488-0.68756 1.73252-0.838646 1.73252-1.03693 1.73252-1.23466 1.69488-1.38522 1.62013-1.4886 1.54485-1.59303 1.4367-1.64551 1.29569-1.64551 1.15414-1.64551 1.046-1.59303 0.971253-1.4886 0.895974-1.38522 0.858865-1.23466 0.858865-1.03693 0.858865-0.83866 0.895975-0.687569 0.971253-0.583124 1.046-0.479747 1.15416-0.428328 1.29569-0.428328Z" fill="#709FAF" fill-rule="nonzero" fill-opacity="1" transform="matrix(1 0 0 1.00162 122.009 571.541)"/><path d="M2.39414-1.04542 2.39414-0.854579 0.8398-0.854579C0.856764-0.698725 0.912958-0.582092 1.00944-0.504694 1.1054-0.426764 1.24058-0.388064 1.41447-0.388064 1.55442-0.388064 1.69703-0.40821 1.84281-0.449559 1.98965-0.49197 2.14021-0.554526 2.29448-0.638283L2.29448-0.127238C2.13757-0.0678626 1.98064-0.023332 1.82372 0.00635686 1.6668 0.0371043 1.50988 0.0530086 1.35295 0.0530086 0.976559 0.0530086 0.683919-0.0424148 0.475041-0.233267 0.267235-0.424109 0.163319-0.691832 0.163319-1.03695 0.163319-1.37624 0.265635-1.64236 0.470793-1.83639 0.675423-2.03148 0.956922-2.12902 1.31477-2.12902 1.64133-2.12902 1.90269-2.02988 2.09936-1.83214 2.29551-1.63547 2.39412-1.37305 2.39412-1.04542ZM1.71133-1.26596C1.71133-1.3916 1.67423-1.49286 1.60106-1.5692 1.52737-1.64659 1.43142-1.68583 1.31267-1.68583 1.18385-1.68583 1.0794-1.64978 0.99883-1.57768 0.918256-1.50557 0.867887-1.40167 0.848269-1.26596Z" fill="#709FAF" fill-rule="nonzero" fill-opacity="1" transform="matrix(1 0 0 1.00162 124.729 571.541)"/><path d="M0.320204-2.88814 0.983929-2.88814 0.983929 0 0.320204 0Z" fill="#709FAF" fill-rule="nonzero" fill-opacity="1" transform="matrix(1 0 0 1.00162 127.306 571.541)"/><path d="M0.320204-2.07806 0.983929-2.07806 0.983929 0 0.320204 0ZM0.320204-2.88811 0.983929-2.88811 0.983929-2.34525 0.320204-2.34525Z" fill="#709FAF" fill-rule="nonzero" fill-opacity="1" transform="matrix(1 0 0 1.00162 128.609 571.541)"/><path d="M1.99758-2.01237 1.99758-1.47163C1.90851-1.53365 1.81787-1.57978 1.72615-1.60946 1.63549-1.63914 1.54166-1.65399 1.44412-1.65399 1.25857-1.65399 1.11385-1.59939 1.00942-1.49071 0.906039-1.38309 0.85462-1.23202 0.85462-1.03691 0.85462-0.842883 0.906044-0.691793 1.00942-0.583113 1.11385-0.475495 1.25857-0.421952 1.44412-0.421952 1.54697-0.421952 1.64558-0.436796 1.73888-0.466483 1.83218-0.49723 1.91806-0.543353 1.99758-0.604314L1.99758-0.0614569C1.89421-0.0232872 1.7887 0.00480971 1.68162 0.0233646 1.57559 0.0429794 1.46798 0.0530521 1.3593 0.0530521 0.984499 0.0530521 0.691329-0.042902 0.479275-0.235341 0.26828-0.427254 0.163319-0.694435 0.163319-1.0369 0.163319-1.38042 0.268285-1.64814 0.479275-1.84058 0.691329-2.0325 0.984499-2.12898 1.3593-2.12898 1.46798-2.12898 1.5756-2.11891 1.68162-2.09928 1.78764-2.08073 1.89262-2.05158 1.99758-2.01234Z" fill="#709FAF" fill-rule="nonzero" fill-opacity="1" transform="matrix(1 0 0 1.00162 129.911 571.541)"/><path d="M1.04542-2.6676 1.04542-2.07808 1.73036-2.07808 1.73036-1.60308 1.04542-1.60308 1.04542-0.720941C1.04542-0.624457 1.0645-0.559781 1.10268-0.525852 1.14085-0.491924 1.21613-0.474959 1.32958-0.474959L1.67098-0.474959 1.67098 4.07143e-05 1.10268 4.07143e-05C0.839729 4.07143e-05 0.653122-0.0540333 0.542854-0.163237 0.433647-0.273505 0.379577-0.459054 0.379577-0.720941L0.379577-1.60308 0.0508901-1.60308 0.0508901-2.07808 0.379577-2.07808 0.379577-2.6676Z" fill="#709FAF" fill-rule="nonzero" fill-opacity="1" transform="matrix(1 0 0 1.00162 132.164 571.541)"/><path d="M0.320204-2.07806 0.983929-2.07806 0.983929 0 0.320204 0ZM0.320204-2.88811 0.983929-2.88811 0.983929-2.34525 0.320204-2.34525Z" fill="#709FAF" fill-rule="nonzero" fill-opacity="1" transform="matrix(1 0 0 1.00162 133.98 571.541)"/><path d="M1.68584-2.88814 1.68584-2.4513 1.31899-2.4513C1.22569-2.4513 1.15995-2.43433 1.12179-2.40041 1.08468-2.36648 1.06665-2.3071 1.06665-2.22228L1.06665-2.07808 1.63496-2.07808 1.63496-1.60308 1.06665-1.60308 1.06665-2.71429e-05 0.402929-2.71429e-05 0.402929-1.60308 0.0721254-1.60308 0.0721254-2.07808 0.402929-2.07808 0.402929-2.22228C0.402929-2.44812 0.465485-2.61564 0.591653-2.72484 0.717295-2.83352 0.912916-2.88812 1.17904-2.88812Z" fill="#709FAF" fill-rule="nonzero" fill-opacity="1" transform="matrix(1 0 0 1.00162 81.5 575.347)"/><path d="M1.8639-1.51199C1.80453-1.5385 1.74568-1.55864 1.68789-1.57137 1.63116-1.58516 1.57392-1.59257 1.51613-1.59257 1.3449-1.59257 1.21342-1.53744 1.12172-1.42717 1.02948-1.31796 0.983888-1.1621 0.983888-0.95853L0.983888-4.75e-05 0.320164-4.75e-05 0.320164-2.07811 0.983888-2.07811 0.983888-1.73671C1.06871-1.87242 1.16626-1.97102 1.27652-2.03358 1.38784-2.09719 1.52091-2.129 1.67518-2.129 1.69745-2.129 1.72183-2.12742 1.74728-2.12476 1.77379-2.12317 1.81195-2.11946 1.86178-2.11416Z" fill="#709FAF" fill-rule="nonzero" fill-opacity="1" transform="matrix(1 0 0 1.00162 83.1535 575.347)"/><path d="M1.30837-1.65409C1.161-1.65409 1.0486-1.60108 0.971199-1.49504 0.893269-1.38901 0.854568-1.23634 0.854568-1.03701 0.854568-0.837669 0.893269-0.684991 0.971199-0.578971 1.0486-0.474004 1.16098-0.422058 1.30837-0.422058 1.45256-0.422058 1.56283-0.474011 1.63917-0.578971 1.71657-0.684997 1.7558-0.837669 1.7558-1.03701 1.7558-1.23634 1.71657-1.38902 1.63917-1.49504 1.56283-1.60106 1.45256-1.65409 1.30837-1.65409ZM1.30837-2.12909C1.66568-2.12909 1.94506-2.03208 2.14598-1.83858 2.34638-1.64613 2.44711-1.37895 2.44711-1.03702 2.44711-0.696146 2.34638-0.428952 2.14598-0.235464 1.94506-0.0430214 1.66568 0.0529286 1.30837 0.0529286 0.948941 0.0529286 0.668501-0.0430255 0.466518-0.235464 0.264005-0.428966 0.163278-0.696146 0.163278-1.03702 0.163278-1.37895 0.264004-1.64615 0.466518-1.83858 0.668501-2.03208 0.948941-2.12909 1.30837-2.12909Z" fill="#709FAF" fill-rule="nonzero" fill-opacity="1" transform="matrix(1 0 0 1.00162 85.0275 575.347)"/><path d="M2.24566-1.73253C2.3289-1.86082 2.42857-1.95943 2.54466-2.02729 2.66023-2.09514 2.78746-2.12907 2.92635-2.12907 3.16491-2.12907 3.34676-2.05485 3.47133-1.90642 3.59697-1.75905 3.66005-1.54594 3.66005-1.26601L3.66005-5.42857e-05 2.99208-5.42857e-05 2.99208-1.08365 2.99208-1.13242C2.99314-1.15045 2.9942-1.1759 2.9942-1.20876 2.9942-1.35561 2.97194-1.46164 2.92846-1.52685 2.88605-1.59312 2.8166-1.62652 2.72065-1.62652 2.59449-1.62652 2.49694-1.57403 2.42802-1.46961 2.35858-1.36622 2.32306-1.2162 2.322-1.02005L2.322-7.6e-05 1.65403-7.6e-05 1.65403-1.08367C1.65403-1.31375 1.63389-1.46167 1.59466-1.52687 1.55489-1.59312 1.48439-1.62652 1.3826-1.62652 1.25537-1.62652 1.15676-1.57404 1.08784-1.46961 1.0184-1.36624 0.983938-1.21727 0.983938-1.02218L0.983938-8.68571e-05 0.315967-8.68571e-05 0.315967-2.07814 0.983938-2.07814 0.983938-1.7749C1.06558-1.89206 1.15889-1.98059 1.26385-2.03996 1.36987-2.09934 1.48651-2.12903 1.61374-2.12903 1.75793-2.12903 1.88517-2.09404 1.99543-2.02513 2.1057-1.95567 2.18894-1.85813 2.24566-1.7325Z" fill="#709FAF" fill-rule="nonzero" fill-opacity="1" transform="matrix(1 0 0 1.00162 87.6379 575.347)"/><path d="M1.04542-2.6676 1.04542-2.07808 1.73036-2.07808 1.73036-1.60308 1.04542-1.60308 1.04542-0.720941C1.04542-0.624457 1.0645-0.559781 1.10268-0.525852 1.14085-0.491924 1.21613-0.474959 1.32958-0.474959L1.67098-0.474959 1.67098 4.07143e-05 1.10268 4.07143e-05C0.839729 4.07143e-05 0.653122-0.0540333 0.542854-0.163237 0.433647-0.273505 0.379577-0.459054 0.379577-0.720941L0.379577-1.60308 0.0508901-1.60308 0.0508901-2.07808 0.379577-2.07808 0.379577-2.6676Z" fill="#709FAF" fill-rule="nonzero" fill-opacity="1" transform="matrix(1 0 0 1.00162 92.9206 575.347)"/><path d="M2.40893-1.26596 2.40893 0 1.74096 0 1.74096-0.964847C1.74096-1.14722 1.73672-1.27232 1.72824-1.34018 1.71976-1.40804 1.70544-1.45787 1.68583-1.49074 1.66038-1.53315 1.62485-1.56602 1.5798-1.59041 1.5358-1.61427 1.48543-1.62645 1.42923-1.62645 1.29034-1.62645 1.18166-1.57239 1.10268-1.46529 1.02316-1.35926 0.983929-1.21136 0.983929-1.02211L0.983929-1.35714e-05 0.320204-1.35714e-05 0.320204-2.88815 0.983929-2.88815 0.983929-1.77487C1.08412-1.89468 1.19015-1.98375 1.30202-2.04207 1.41493-2.09985 1.53952-2.129 1.67523-2.129 1.91538-2.129 2.09775-2.05478 2.22232-1.90635 2.34638-1.75898 2.40893-1.54587 2.40893-1.26595Z" fill="#709FAF" fill-rule="nonzero" fill-opacity="1" transform="matrix(1 0 0 1.00162 94.7369 575.347)"/><path d="M2.39414-1.04542 2.39414-0.854579 0.8398-0.854579C0.856764-0.698725 0.912958-0.582092 1.00944-0.504694 1.1054-0.426764 1.24058-0.388064 1.41447-0.388064 1.55442-0.388064 1.69703-0.40821 1.84281-0.449559 1.98965-0.49197 2.14021-0.554526 2.29448-0.638283L2.29448-0.127238C2.13757-0.0678626 1.98064-0.023332 1.82372 0.00635686 1.6668 0.0371043 1.50988 0.0530086 1.35295 0.0530086 0.976559 0.0530086 0.683919-0.0424148 0.475041-0.233267 0.267235-0.424109 0.163319-0.691832 0.163319-1.03695 0.163319-1.37624 0.265635-1.64236 0.470793-1.83639 0.675423-2.03148 0.956922-2.12902 1.31477-2.12902 1.64133-2.12902 1.90269-2.02988 2.09936-1.83214 2.29551-1.63547 2.39412-1.37305 2.39412-1.04542ZM1.71133-1.26596C1.71133-1.3916 1.67423-1.49286 1.60106-1.5692 1.52737-1.64659 1.43142-1.68583 1.31267-1.68583 1.18385-1.68583 1.0794-1.64978 0.99883-1.57768 0.918256-1.50557 0.867887-1.40167 0.848269-1.26596Z" fill="#709FAF" fill-rule="nonzero" fill-opacity="1" transform="matrix(1 0 0 1.00162 97.4422 575.347)"/><path d="M0.349885-2.76939 1.14721-2.76939 2.15446-0.869386 2.15446-2.76939 2.83092-2.76939 2.83092 0 2.0336 0 1.02634-1.9 1.02634 0 0.349885 0Z" fill="#709FAF" fill-rule="nonzero" fill-opacity="1" transform="matrix(1 0 0 1.00162 101.342 575.347)"/><path d="M1.30837-1.65409C1.161-1.65409 1.0486-1.60108 0.971199-1.49504 0.893269-1.38901 0.854568-1.23634 0.854568-1.03701 0.854568-0.837669 0.893269-0.684991 0.971199-0.578971 1.0486-0.474004 1.16098-0.422058 1.30837-0.422058 1.45256-0.422058 1.56283-0.474011 1.63917-0.578971 1.71657-0.684997 1.7558-0.837669 1.7558-1.03701 1.7558-1.23634 1.71657-1.38902 1.63917-1.49504 1.56283-1.60106 1.45256-1.65409 1.30837-1.65409ZM1.30837-2.12909C1.66568-2.12909 1.94506-2.03208 2.14598-1.83858 2.34638-1.64613 2.44711-1.37895 2.44711-1.03702 2.44711-0.696146 2.34638-0.428952 2.14598-0.235464 1.94506-0.0430214 1.66568 0.0529286 1.30837 0.0529286 0.948941 0.0529286 0.668501-0.0430255 0.466518-0.235464 0.264005-0.428966 0.163278-0.696146 0.163278-1.03702 0.163278-1.37895 0.264004-1.64615 0.466518-1.83858 0.668501-2.03208 0.948941-2.12909 1.30837-2.12909Z" fill="#709FAF" fill-rule="nonzero" fill-opacity="1" transform="matrix(1 0 0 1.00162 104.523 575.347)"/><path d="M0.296875-0.810052 0.296875-2.07814 0.964847-2.07814 0.964847-1.87033C0.964847-1.75689 0.963787-1.61587 0.962726-1.44623 0.961137-1.27658 0.960606-1.16314 0.960606-1.10694 0.960606-0.938356 0.964847-0.817489 0.973329-0.744325 0.982871-0.670636 0.997716-0.617624 1.01786-0.585281 1.04596-0.54128 1.08201-0.507352 1.12601-0.483496 1.16948-0.4607 1.21984-0.449567 1.27657-0.449567 1.41493-0.449567 1.52361-0.50258 1.60313-0.608611 1.68211-0.714638 1.72188-0.862016 1.72188-1.0518L1.72188-2.07814 2.3856-2.07814 2.3856-8.14286e-05 1.72188-8.14286e-05 1.72188-0.301204C1.62115-0.179273 1.51513-0.08968 1.40379-0.0318929 1.29193 0.024301 1.16841 0.0529286 1.03269 0.0529286 0.793603 0.0529286 0.61123-0.0202296 0.485599-0.167607 0.359427-0.31445 0.296875-0.528634 0.296875-0.810133Z" fill="#709FAF" fill-rule="nonzero" fill-opacity="1" transform="matrix(1 0 0 1.00162 107.134 575.347)"/><path d="M2.40893-1.26596 2.40893 0 1.74096 0 1.74096-0.969082C1.74096-1.14827 1.73672-1.27232 1.72824-1.34018 1.71976-1.40804 1.70544-1.45787 1.68583-1.49074 1.66038-1.53315 1.62485-1.56602 1.5798-1.59041 1.5358-1.61427 1.48543-1.62645 1.42923-1.62645 1.29034-1.62645 1.18166-1.57239 1.10268-1.46529 1.02316-1.35926 0.983929-1.21136 0.983929-1.02211L0.983929-1.35714e-05 0.320204-1.35714e-05 0.320204-2.07807 0.983929-2.07807 0.983929-1.77483C1.08412-1.89464 1.19015-1.98371 1.30202-2.04203 1.41493-2.09981 1.53952-2.12896 1.67523-2.12896 1.91538-2.12896 2.09775-2.05474 2.22232-1.90631 2.34638-1.75894 2.40893-1.54583 2.40893-1.2659Z" fill="#709FAF" fill-rule="nonzero" fill-opacity="1" transform="matrix(1 0 0 1.00162 109.839 575.347)"/><path d="M0.349885-2.76939 1.53527-2.76939C1.88728-2.76939 2.15711-2.69093 2.34532-2.534 2.53457-2.37815 2.62948-2.15548 2.62948-1.86603 2.62948-1.57605 2.53459-1.35287 2.34532-1.19594 2.15712-1.03903 1.88728-0.960559 1.53527-0.960559L1.06239-0.960559 1.06239 4.07143e-05 0.349885 4.07143e-05ZM1.06239-2.25198 1.06239-1.47798 1.45893-1.47798C1.59729-1.47798 1.70385-1.51191 1.77913-1.57977 1.85547-1.64763 1.89364-1.74305 1.89364-1.86604 1.89364-1.9901 1.85547-2.08552 1.77913-2.15232 1.70385-2.21859 1.5973-2.25199 1.45893-2.25199Z" fill="#709FAF" fill-rule="nonzero" fill-opacity="1" transform="matrix(1 0 0 1.00162 113.867 575.347)"/><path d="M1.8639-1.51199C1.80453-1.5385 1.74568-1.55864 1.68789-1.57137 1.63116-1.58516 1.57392-1.59257 1.51613-1.59257 1.3449-1.59257 1.21342-1.53744 1.12172-1.42717 1.02948-1.31796 0.983888-1.1621 0.983888-0.95853L0.983888-4.75e-05 0.320164-4.75e-05 0.320164-2.07811 0.983888-2.07811 0.983888-1.73671C1.06871-1.87242 1.16626-1.97102 1.27652-2.03358 1.38784-2.09719 1.52091-2.129 1.67518-2.129 1.69745-2.129 1.72183-2.12742 1.74728-2.12476 1.77379-2.12317 1.81195-2.11946 1.86178-2.11416Z" fill="#709FAF" fill-rule="nonzero" fill-opacity="1" transform="matrix(1 0 0 1.00162 116.652 575.347)"/><path d="M1.30837-1.65409C1.161-1.65409 1.0486-1.60108 0.971199-1.49504 0.893269-1.38901 0.854568-1.23634 0.854568-1.03701 0.854568-0.837669 0.893269-0.684991 0.971199-0.578971 1.0486-0.474004 1.16098-0.422058 1.30837-0.422058 1.45256-0.422058 1.56283-0.474011 1.63917-0.578971 1.71657-0.684997 1.7558-0.837669 1.7558-1.03701 1.7558-1.23634 1.71657-1.38902 1.63917-1.49504 1.56283-1.60106 1.45256-1.65409 1.30837-1.65409ZM1.30837-2.12909C1.66568-2.12909 1.94506-2.03208 2.14598-1.83858 2.34638-1.64613 2.44711-1.37895 2.44711-1.03702 2.44711-0.696146 2.34638-0.428952 2.14598-0.235464 1.94506-0.0430214 1.66568 0.0529286 1.30837 0.0529286 0.948941 0.0529286 0.668501-0.0430255 0.466518-0.235464 0.264005-0.428966 0.163278-0.696146 0.163278-1.03702 0.163278-1.37895 0.264004-1.64615 0.466518-1.83858 0.668501-2.03208 0.948941-2.12909 1.30837-2.12909Z" fill="#709FAF" fill-rule="nonzero" fill-opacity="1" transform="matrix(1 0 0 1.00162 118.526 575.347)"/><path d="M0.320204-2.07806 0.983929-2.07806 0.983929-0.0381357C0.983929 0.240187 0.916602 0.45277 0.782474 0.600142 0.649411 0.746985 0.455919 0.820678 0.201454 0.820678L-0.127232 0.820678-0.127232 0.383841-0.010602 0.383841C0.11504 0.383841 0.201452 0.355213 0.248097 0.299019 0.295808 0.242295 0.320195 0.129906 0.320195-0.0381493ZM0.320204-2.88811 0.983929-2.88811 0.983929-2.34525 0.320204-2.34525Z" fill="#709FAF" fill-rule="nonzero" fill-opacity="1" transform="matrix(1 0 0 1.00162 121.137 575.347)"/><path d="M2.39414-1.04542 2.39414-0.854579 0.8398-0.854579C0.856764-0.698725 0.912958-0.582092 1.00944-0.504694 1.1054-0.426764 1.24058-0.388064 1.41447-0.388064 1.55442-0.388064 1.69703-0.40821 1.84281-0.449559 1.98965-0.49197 2.14021-0.554526 2.29448-0.638283L2.29448-0.127238C2.13757-0.0678626 1.98064-0.023332 1.82372 0.00635686 1.6668 0.0371043 1.50988 0.0530086 1.35295 0.0530086 0.976559 0.0530086 0.683919-0.0424148 0.475041-0.233267 0.267235-0.424109 0.163319-0.691832 0.163319-1.03695 0.163319-1.37624 0.265635-1.64236 0.470793-1.83639 0.675423-2.03148 0.956922-2.12902 1.31477-2.12902 1.64133-2.12902 1.90269-2.02988 2.09936-1.83214 2.29551-1.63547 2.39412-1.37305 2.39412-1.04542ZM1.71133-1.26596C1.71133-1.3916 1.67423-1.49286 1.60106-1.5692 1.52737-1.64659 1.43142-1.68583 1.31267-1.68583 1.18385-1.68583 1.0794-1.64978 0.99883-1.57768 0.918256-1.50557 0.867887-1.40167 0.848269-1.26596Z" fill="#709FAF" fill-rule="nonzero" fill-opacity="1" transform="matrix(1 0 0 1.00162 122.439 575.347)"/><path d="M1.99758-2.01237 1.99758-1.47163C1.90851-1.53365 1.81787-1.57978 1.72615-1.60946 1.63549-1.63914 1.54166-1.65399 1.44412-1.65399 1.25857-1.65399 1.11385-1.59939 1.00942-1.49071 0.906039-1.38309 0.85462-1.23202 0.85462-1.03691 0.85462-0.842883 0.906044-0.691793 1.00942-0.583113 1.11385-0.475495 1.25857-0.421952 1.44412-0.421952 1.54697-0.421952 1.64558-0.436796 1.73888-0.466483 1.83218-0.49723 1.91806-0.543353 1.99758-0.604314L1.99758-0.0614569C1.89421-0.0232872 1.7887 0.00480971 1.68162 0.0233646 1.57559 0.0429794 1.46798 0.0530521 1.3593 0.0530521 0.984499 0.0530521 0.691329-0.042902 0.479275-0.235341 0.26828-0.427254 0.163319-0.694435 0.163319-1.0369 0.163319-1.38042 0.268285-1.64814 0.479275-1.84058 0.691329-2.0325 0.984499-2.12898 1.3593-2.12898 1.46798-2.12898 1.5756-2.11891 1.68162-2.09928 1.78764-2.08073 1.89262-2.05158 1.99758-2.01234Z" fill="#709FAF" fill-rule="nonzero" fill-opacity="1" transform="matrix(1 0 0 1.00162 125.017 575.347)"/><path d="M1.04542-2.6676 1.04542-2.07808 1.73036-2.07808 1.73036-1.60308 1.04542-1.60308 1.04542-0.720941C1.04542-0.624457 1.0645-0.559781 1.10268-0.525852 1.14085-0.491924 1.21613-0.474959 1.32958-0.474959L1.67098-0.474959 1.67098 4.07143e-05 1.10268 4.07143e-05C0.839729 4.07143e-05 0.653122-0.0540333 0.542854-0.163237 0.433647-0.273505 0.379577-0.459054 0.379577-0.720941L0.379577-1.60308 0.0508901-1.60308 0.0508901-2.07808 0.379577-2.07808 0.379577-2.6676Z" fill="#709FAF" fill-rule="nonzero" fill-opacity="1" transform="matrix(1 0 0 1.00162 127.269 575.347)"/></g></g></g></g></svg>